<?xml version="1.0" standalone="no"?>
<!DOCTYPE svg PUBLIC "-//W3C//DTD SVG 20010904//EN"
 "http://www.w3.org/TR/2001/REC-SVG-20010904/DTD/svg10.dtd">
<svg version="1.0" xmlns="http://www.w3.org/2000/svg"
 width="466.000000pt" height="253.000000pt" viewBox="0 0 466.000000 253.000000"
 preserveAspectRatio="xMidYMid meet">
<metadata>
Created by potrace 1.16, written by Peter Selinger 2001-2019
</metadata>
<g transform="translate(0.000000,253.000000) scale(0.100000,-0.100000)"
fill="#000000" stroke="none">
<path d="M955 2164 c-36 -19 -47 -35 -60 -93 l-10 -44 -72 -20 c-45 -12 -73
-24 -73 -32 0 -23 12 -24 73 -8 33 8 61 12 64 10 2 -3 0 -63 -6 -134 -16 -195
-24 -454 -16 -511 7 -51 8 -52 40 -52 23 0 39 7 52 23 12 16 37 28 73 36 92
20 212 84 262 140 77 86 71 155 -18 203 -45 24 -73 33 -159 53 l-29 6 54 32
c67 38 157 125 166 161 20 79 -35 109 -200 109 l-108 0 6 46 c11 78 11 84 1
87 -5 2 -23 -3 -40 -12z m226 -174 c81 -23 73 -76 -21 -138 -56 -38 -187 -99
-194 -91 -4 5 13 209 19 227 5 15 143 17 196 2z m-32 -315 c63 -19 121 -70
121 -107 0 -31 -49 -78 -116 -111 -64 -32 -183 -71 -192 -63 -11 11 -15 132
-7 222 l7 87 67 -6 c36 -3 91 -13 120 -22z"/>
<path d="M3555 2102 c-108 -52 -191 -164 -215 -290 -20 -97 -7 -289 29 -462
34 -160 48 -335 33 -420 -5 -30 -19 -100 -32 -155 -16 -68 -21 -113 -16 -138
15 -79 162 -184 311 -222 34 -9 104 -16 163 -16 113 0 173 19 201 63 7 12 17
67 21 123 13 174 24 208 137 427 253 492 273 543 273 668 -1 88 -15 144 -50
195 -51 74 -143 102 -235 71 -16 -5 -24 0 -38 23 -26 44 -49 53 -141 56 -75 2
-88 6 -175 51 -122 63 -179 68 -266 26z m186 -17 c24 -9 61 -27 82 -41 l38
-25 -38 -42 c-53 -58 -78 -102 -99 -172 -20 -70 -26 -247 -8 -265 8 -8 13 17
16 97 8 174 64 303 148 345 44 22 127 23 180 2 51 -20 79 -66 90 -145 13 -92
-4 -169 -61 -283 -48 -96 -57 -136 -18 -86 10 14 38 63 61 110 42 84 42 85 42
192 -1 98 1 109 21 128 51 48 140 31 182 -34 62 -96 67 -230 14 -374 -32 -89
-187 -395 -246 -487 -35 -56 -61 -69 -84 -41 -8 10 2 39 44 125 56 114 74 173
34 116 -11 -16 -34 -57 -51 -90 -17 -33 -39 -72 -50 -87 -18 -26 -21 -27 -46
-14 -15 8 -36 24 -46 35 -21 23 -20 34 11 171 10 44 -13 9 -32 -47 -9 -29 -25
-63 -35 -75 -17 -22 -20 -22 -66 -10 -88 24 -94 31 -94 122 0 43 -4 82 -10 85
-6 4 -10 -16 -10 -54 0 -101 -25 -136 -86 -120 -38 11 -54 43 -55 117 l-1 57
-9 -55 c-10 -73 -25 -110 -43 -110 -24 0 -33 29 -40 130 -6 90 -22 177 -32
167 -2 -2 1 -48 7 -103 12 -110 9 -194 -6 -195 -5 0 -14 24 -18 53 -5 29 -22
123 -38 209 -69 370 -14 585 173 679 69 34 114 38 179 15z m64 -1019 c88 -30
204 -97 249 -145 l30 -31 -23 -68 c-13 -37 -27 -113 -32 -171 -5 -58 -12 -107
-15 -110 -3 -3 -17 2 -32 11 -152 94 -240 125 -382 135 -62 4 -102 1 -149 -11
-35 -9 -66 -14 -69 -11 -3 3 7 58 22 123 15 64 30 155 34 202 l7 85 35 13 c60
21 231 10 325 -22z m30 -467 c90 -33 168 -83 173 -111 11 -55 -173 -71 -326
-28 -184 50 -257 161 -120 179 70 10 180 -6 273 -40z"/>
<path d="M1813 1868 c-17 -19 -24 -53 -42 -203 -25 -209 -26 -264 -8 -289 23
-32 51 -5 81 77 42 114 139 277 166 277 4 0 10 -45 13 -100 9 -152 42 -201
121 -179 65 18 186 164 186 227 0 36 -28 25 -51 -20 -39 -77 -80 -129 -116
-146 -33 -16 -36 -16 -48 1 -7 10 -16 66 -20 130 -8 132 -23 177 -58 177 -31
0 -95 -64 -144 -143 -19 -32 -37 -56 -40 -53 -3 2 3 40 13 83 10 43 18 101 18
128 1 46 -1 50 -24 53 -17 2 -33 -5 -47 -20z"/>
<path d="M1520 1782 c-81 -40 -135 -160 -128 -283 8 -149 115 -192 217 -90 94
94 111 298 30 365 -36 30 -71 33 -119 8z m91 -71 c22 -18 24 -27 24 -109 0
-84 -2 -93 -30 -134 -17 -23 -43 -47 -59 -53 -25 -8 -31 -6 -53 20 -23 26 -25
35 -21 99 7 103 56 190 109 195 4 1 17 -8 30 -18z"/>
<path d="M2994 1595 c-32 -32 -66 -110 -88 -201 -14 -58 -22 -74 -42 -83 -30
-13 -29 -45 1 -49 19 -3 20 -11 20 -145 0 -141 0 -142 -32 -198 -35 -62 -87
-119 -108 -119 -8 0 -20 10 -26 23 -17 30 -15 160 3 227 17 63 14 80 -12 80
-41 0 -80 -93 -80 -189 0 -30 -9 -52 -40 -92 -50 -67 -94 -97 -116 -78 -27 22
-44 66 -55 141 l-11 73 40 75 c22 41 50 105 62 142 20 62 24 68 68 90 55 27
56 44 3 41 l-37 -3 4 90 c8 156 -15 201 -81 163 -39 -23 -78 -98 -110 -212
-20 -68 -29 -87 -51 -98 -14 -7 -26 -19 -26 -26 0 -18 20 -36 34 -31 8 3 11
-40 11 -153 l0 -158 -34 -48 c-84 -122 -219 -143 -223 -34 -1 29 7 43 50 87
55 56 102 138 102 180 0 59 -53 87 -107 57 -47 -26 -98 -117 -117 -211 -17
-78 -34 -111 -83 -158 -39 -38 -114 -77 -147 -78 -16 0 -15 3 7 20 55 43 109
219 93 303 -22 119 -124 115 -212 -7 -44 -62 -56 -69 -48 -27 8 41 -20 91 -51
91 -29 0 -32 -10 -38 -130 -5 -94 -23 -142 -78 -204 -31 -36 -119 -86 -152
-86 -16 0 -14 5 12 30 40 41 72 129 79 217 5 83 -1 116 -28 143 -44 44 -121 8
-186 -86 -21 -30 -39 -54 -42 -54 -2 0 -2 18 2 39 5 33 2 45 -18 68 -20 23
-28 26 -43 17 -14 -9 -20 -32 -28 -121 -9 -105 -12 -114 -49 -167 -42 -61 -95
-101 -124 -92 -25 8 -50 55 -73 134 -28 98 -26 109 19 121 53 15 80 36 65 52
-9 9 -22 9 -59 0 -55 -14 -63 -8 -65 54 -1 22 -4 121 -8 220 -7 200 -9 205
-71 163 -30 -21 -35 -31 -51 -108 -32 -159 -144 -483 -215 -627 -25 -51 -63
-110 -85 -133 -35 -36 -44 -40 -88 -40 -55 0 -74 -16 -46 -37 41 -29 122 -6
176 49 50 51 87 118 135 240 l37 98 56 15 c31 9 63 18 72 21 13 3 18 -5 23
-37 18 -113 74 -216 133 -244 33 -16 38 -16 79 0 28 10 59 34 81 61 20 24 38
42 40 41 1 -2 -4 -25 -13 -52 -31 -105 -64 -316 -64 -416 0 -114 15 -159 54
-159 66 0 96 104 116 400 7 96 13 176 14 178 2 1 16 -4 32 -13 38 -20 138 -19
198 1 32 11 65 34 101 71 l54 55 -15 -48 c-31 -101 -64 -293 -70 -409 -5 -104
-3 -125 13 -155 14 -28 24 -35 47 -35 25 0 33 7 53 45 13 25 27 70 33 100 11
66 30 302 30 381 l0 57 37 -19 c91 -46 231 -13 308 72 20 23 38 39 40 37 1 -1
10 -18 19 -35 9 -18 31 -40 48 -49 64 -33 188 21 260 114 l31 41 23 -55 c55
-136 117 -144 219 -32 l54 61 11 -29 c30 -77 78 -85 145 -23 24 23 57 61 72
85 16 24 30 44 33 44 3 0 14 -23 24 -52 21 -59 73 -118 105 -118 35 0 75 26
123 79 53 58 123 192 114 216 -10 26 -28 13 -56 -41 -34 -67 -88 -141 -116
-159 -53 -34 -82 -8 -110 100 -21 77 -17 105 26 197 22 47 46 110 54 139 12
49 17 56 60 78 25 13 46 30 46 37 0 16 -33 18 -60 4 -17 -9 -18 -4 -17 88 1
60 -4 105 -11 120 -17 30 -56 29 -88 -3z m-487 -161 c-3 -58 -9 -110 -13 -114
-5 -5 -26 -12 -46 -15 -28 -5 -38 -4 -38 6 0 29 43 168 61 197 34 58 42 41 36
-74z m-710 -402 c10 -40 -14 -141 -49 -212 -38 -75 -72 -100 -115 -84 -27 10
-28 11 -25 74 5 77 34 139 103 212 50 53 74 56 86 10z m-491 -24 c23 -36 -12
-191 -59 -263 -29 -45 -57 -59 -97 -50 l-33 7 7 71 c5 56 13 82 39 122 66 103
122 148 143 113z m214 -568 c-12 -183 -25 -270 -41 -270 -25 0 -5 275 33 440
19 85 22 30 8 -170z m-481 4 c-10 -183 -23 -292 -38 -307 -30 -30 -21 190 14
368 31 154 35 144 24 -61z"/>
</g>
</svg>
