<?xml version="1.0" encoding="UTF-8"?>
<svg xmlns="http://www.w3.org/2000/svg" xmlns:xlink="http://www.w3.org/1999/xlink" width="12pt" height="15pt" viewBox="0 0 12 15" version="1.1">
<g id="surface1">
<path style=" stroke:none;fill-rule:nonzero;fill:rgb(0%,0%,0%);fill-opacity:1;" d="M 9.148438 5.625 L 6.300781 5.625 L 6.300781 7.265625 C 6.300781 8.429688 5.695312 9.375 4.949219 9.375 C 4.207031 9.375 3.601562 8.429688 3.601562 7.265625 L 3.601562 3.703125 L 2.382812 4.84375 C 2.019531 5.183594 1.800781 5.796875 1.800781 6.453125 L 1.800781 7.835938 L 0.300781 9.191406 C 0.0117188 9.449219 -0.0859375 10.023438 0.0820312 10.46875 L 1.582031 14.53125 C 1.746094 14.980469 2.113281 15.132812 2.398438 14.875 L 4.339844 13.125 L 6.898438 13.125 C 7.5625 13.125 8.101562 12.285156 8.101562 11.25 L 8.398438 11.25 C 8.730469 11.25 9 10.832031 9 10.3125 L 9 8.4375 L 9.148438 8.4375 C 9.398438 8.4375 9.601562 8.125 9.601562 7.734375 L 9.601562 6.328125 C 9.601562 5.9375 9.398438 5.625 9.148438 5.625 Z M 11.917969 4.53125 L 10.417969 0.46875 C 10.253906 0.0195312 9.886719 -0.132812 9.601562 0.125 L 7.660156 1.875 L 5.746094 1.875 C 5.519531 1.875 5.300781 1.976562 5.109375 2.160156 L 4.480469 2.773438 C 4.304688 2.941406 4.199219 3.242188 4.199219 3.566406 L 4.199219 7.265625 C 4.199219 7.914062 4.535156 8.4375 4.949219 8.4375 C 5.363281 8.4375 5.699219 7.914062 5.699219 7.265625 L 5.699219 4.6875 L 9.148438 4.6875 C 9.730469 4.6875 10.199219 5.421875 10.199219 6.328125 L 10.199219 7.164062 L 11.699219 5.808594 C 11.988281 5.546875 12.085938 4.976562 11.917969 4.53125 Z M 11.917969 4.53125 "/>
</g>
</svg>
