<?xml version="1.0" standalone="no"?>
<!DOCTYPE svg PUBLIC "-//W3C//DTD SVG 20010904//EN"
 "http://www.w3.org/TR/2001/REC-SVG-20010904/DTD/svg10.dtd">
<svg version="1.0" xmlns="http://www.w3.org/2000/svg"
 width="1200.000000pt" height="630.000000pt" viewBox="0 0 1200.000000 630.000000"
 preserveAspectRatio="xMidYMid meet">

<g transform="translate(0.000000,630.000000) scale(0.100000,-0.100000)"
fill="#000000" stroke="none">
<path d="M5730 6289 c-1440 -127 -2613 -1217 -2839 -2639 -173 -1089 227
-2178 1064 -2895 817 -700 1946 -933 2980 -613 982 303 1770 1091 2073 2073
392 1269 -52 2646 -1111 3446 -620 468 -1403 695 -2167 628z m685 -229 c551
-82 1043 -301 1466 -653 648 -541 1026 -1314 1055 -2157 41 -1155 -603 -2227
-1641 -2735 -450 -220 -905 -319 -1395 -301 -660 23 -1274 257 -1781 679 -492
410 -830 955 -978 1577 -59 246 -75 387 -75 680 0 293 16 434 75 680 148 622
486 1167 978 1577 462 385 1014 614 1624 673 152 14 512 4 672 -20z"/>
<path d="M5763 5235 c-205 -23 -491 -101 -539 -146 -50 -47 -34 -135 30 -165
33 -16 37 -16 123 11 209 65 439 105 608 105 98 0 286 -18 374 -35 113 -23
147 -20 182 14 37 38 40 97 7 136 -60 68 -498 113 -785 80z"/>
<path d="M4677 4700 c-15 -12 -31 -38 -37 -58 -11 -41 -14 -927 -3 -983 5 -26
41 -70 158 -189 l153 -155 -19 -380 c-10 -209 -23 -459 -28 -555 -6 -96 -18
-340 -27 -541 l-17 -366 21 -69 c27 -88 94 -166 178 -209 54 -27 68 -30 159
-30 89 1 106 4 153 28 73 38 128 97 165 175 31 66 32 70 30 197 -1 72 -7 207
-13 300 -5 94 -19 359 -30 590 -11 231 -25 520 -32 643 l-12 223 154 154 155
155 3 498 c1 273 0 508 -3 520 -10 41 -53 72 -99 72 -44 -1 -62 -11 -89 -50
-15 -22 -17 -68 -17 -490 l0 -465 -150 -150 c-99 -99 -153 -160 -158 -180 -5
-16 -5 -93 0 -170 4 -77 19 -372 33 -655 14 -283 31 -634 39 -780 8 -146 12
-279 9 -295 -24 -131 -213 -156 -267 -36 -18 39 -18 54 3 503 12 255 26 533
31 618 5 85 17 300 25 477 13 279 13 327 1 355 -8 18 -80 98 -160 178 l-146
145 0 468 0 469 -29 29 c-37 36 -94 40 -134 9z"/>
<path d="M5000 4707 c-51 -40 -50 -30 -50 -505 0 -307 3 -450 11 -465 19 -36
52 -57 92 -57 47 0 82 22 96 62 7 20 11 179 11 458 0 279 -4 438 -11 458 -6
17 -21 38 -34 46 -29 19 -94 20 -115 3z"/>
<path d="M5307 4700 c-15 -12 -31 -38 -37 -58 -13 -50 -13 -834 0 -884 22 -79
114 -105 171 -49 l29 29 0 462 0 462 -29 29 c-37 36 -94 40 -134 9z"/>
<path d="M6645 4701 c-115 -33 -227 -126 -282 -235 -28 -54 -80 -214 -113
-344 -64 -255 -46 -541 45 -696 39 -66 98 -130 161 -171 l55 -37 -6 -76 c-3
-43 -14 -295 -25 -562 -11 -267 -25 -568 -30 -670 -6 -102 -12 -255 -13 -340
-2 -152 -2 -156 26 -212 34 -67 102 -134 172 -168 44 -22 63 -25 155 -25 95 1
110 3 158 28 112 59 180 156 189 271 5 60 -13 549 -42 1121 -8 160 -17 367
-21 461 l-7 171 45 31 c60 42 147 137 180 199 51 95 62 160 62 363 1 205 -5
242 -76 475 -48 157 -87 233 -152 297 -125 123 -310 169 -481 119z m236 -205
c90 -32 145 -102 187 -239 63 -206 73 -260 79 -402 10 -271 -33 -364 -215
-466 -36 -21 -58 -41 -67 -62 -14 -34 -13 -69 20 -737 30 -622 47 -1099 41
-1125 -19 -76 -115 -113 -203 -80 -37 14 -49 25 -64 60 -21 46 -20 73 11 680
6 110 17 362 25 560 8 198 18 419 21 490 8 163 2 178 -88 223 -159 78 -219
221 -204 479 7 107 24 183 83 376 43 137 83 194 168 233 57 27 147 31 206 10z"/>
<path d="M7463 4516 c-60 -51 -51 -108 35 -218 191 -244 329 -571 373 -888 19
-133 16 -429 -5 -555 -63 -373 -225 -707 -474 -980 -97 -106 -110 -154 -56
-209 59 -58 121 -36 221 77 288 326 465 708 524 1127 19 137 17 449 -4 586
-54 351 -195 685 -407 964 -74 97 -90 111 -137 117 -32 4 -45 0 -70 -21z"/>
<path d="M4340 4417 c-14 -7 -53 -55 -88 -107 -494 -742 -461 -1717 82 -2435
33 -44 94 -115 136 -157 64 -66 81 -78 108 -78 73 0 121 55 108 123 -4 22 -29
59 -74 108 -219 239 -359 498 -442 814 -40 156 -54 274 -54 475 0 201 12 294
59 470 58 216 125 368 249 560 79 124 84 154 32 206 -37 37 -72 43 -116 21z"/>
<path d="M5699 1242 c-58 -48 -43 -138 29 -170 55 -24 490 -24 544 0 53 24 76
73 59 127 -6 23 -22 46 -34 53 -16 9 -97 13 -296 13 -274 1 -275 1 -302 -23z"/>
</g>
</svg>
