<?xml version="1.0" encoding="UTF-8"?>
<svg xmlns="http://www.w3.org/2000/svg" xmlns:xlink="http://www.w3.org/1999/xlink" width="12pt" height="14pt" viewBox="0 0 12 14" version="1.1">
<g id="surface1">
<path style=" stroke:none;fill-rule:nonzero;fill:rgb(0%,0%,0%);fill-opacity:1;" d="M 5.996094 0.414062 C 6.019531 0.542969 6.460938 3 6.460938 3.9375 C 6.460938 5.367188 5.660156 6.386719 4.472656 6.796875 L 4.847656 13.308594 C 4.867188 13.683594 4.550781 14 4.152344 14 L 2.308594 14 C 1.914062 14 1.59375 13.6875 1.617188 13.308594 L 1.988281 6.796875 C 0.800781 6.386719 0 5.363281 0 3.9375 C 0 2.996094 0.441406 0.542969 0.464844 0.414062 C 0.558594 -0.140625 1.769531 -0.148438 1.847656 0.445312 L 1.847656 4.304688 C 1.882812 4.398438 2.28125 4.394531 2.308594 4.304688 C 2.347656 3.613281 2.535156 0.5 2.539062 0.429688 C 2.632812 -0.140625 3.828125 -0.140625 3.921875 0.429688 C 3.925781 0.503906 4.109375 3.613281 4.152344 4.304688 C 4.175781 4.394531 4.578125 4.398438 4.613281 4.304688 L 4.613281 0.445312 C 4.6875 -0.144531 5.90625 -0.140625 5.996094 0.414062 Z M 9.4375 8.226562 L 9.003906 13.289062 C 8.96875 13.671875 9.289062 14 9.691406 14 L 11.308594 14 C 11.691406 14 12 13.707031 12 13.34375 L 12 0.65625 C 12 0.296875 11.691406 0 11.308594 0 C 8.929688 0 4.921875 4.882812 9.4375 8.226562 Z M 9.4375 8.226562 "/>
</g>
</svg>
